<svg class="crystal-icon" width="18px" height="18px" viewBox="0 0 18 18" version="1.1" xmlns="http://www.w3.org/2000/svg" xmlns:xlink="http://www.w3.org/1999/xlink"><g id="For-Review" stroke="none" stroke-width="1" fill="none" fill-rule="evenodd"><g id="Desktop---V1" transform="translate(-1259, -51)" stroke-width="0.6"><g id="Crystal-Icon" transform="translate(1259, 51)"><g id="Crystal-Tiers---Crystal-" transform="translate(2, 0)" fill-rule="nonzero" stroke="#23201F"><polygon id="Path" points="6.50018266 0 0 9 6.50018266 18 13 9"></polygon><polyline id="Path" points="6.5 0 8.9375 9.17203376 6.5 11.8913043"></polyline><polyline id="Path" points="4.0625 8.91903475 2.3020782 10.2391304 0.40625 8.91903475"></polyline><polyline id="Path" points="6.5 18 6.5 11.7132609 4.0625 9.03306192 6.5 0"></polyline><polyline id="Path" points="8.9375 9.09365464 10.96875 10.2391304 13 8.58695652"></polyline><polyline id="Path" points="6.5 18 6.5 11.6772784 8.9375 9.00497578 6.5 0"></polyline></g><path d="M15,4 C15,3.4424 15.19392,2.969668 15.5818,2.5818 C15.96968,2.193932 16.4424,2 17,2 C16.4424,2 15.96968,1.806068 15.5818,1.4182 C15.19392,1.030332 15,0.5576 15,0 C15,0.5576 14.80608,1.030332 14.4182,1.4182 C14.03032,1.806068 13.5576,2 13,2 C13.5576,2 14.03032,2.193932 14.4182,2.5818 C14.80608,2.969668 15,3.4424 15,4 Z" id="Path" stroke="#000000"></path><path d="M2,17 C2,16.4424 2.19392,15.969668 2.5818,15.5818 C2.96968,15.193932 3.4424,15 4,15 C3.4424,15 2.96968,14.806068 2.5818,14.4182 C2.19392,14.030332 2,13.5576 2,13 C2,13.5576 1.80608,14.030332 1.4182,14.4182 C1.03032,14.806068 0.5576,15 0,15 C0.5576,15 1.03032,15.193932 1.4182,15.5818 C1.80608,15.969668 2,16.4424 2,17 Z" id="Path" stroke="#000000"></path></g></g></g></svg>