<svg width="5.90909091px" height="10px" viewBox="0 0 5.90909091 10" version="1.1" xmlns="http://www.w3.org/2000/svg" xmlns:xlink="http://www.w3.org/1999/xlink"><g id="For-Review" stroke="none" stroke-width="1" fill="none" fill-rule="evenodd"><g id="Mobile---shop" transform="translate(-33.0455, -80.9545)" fill="#111111" fill-rule="nonzero"><g id="Arrow-Right" transform="translate(36, 85.9545) rotate(90) translate(-36, -85.9545)translate(31, 83)"><path d="M10,0.836648958 C10,0.91511198 9.97422387,0.993575003 9.89688138,1.07203803 L5.23200136,5.80452817 C5.15465929,5.8829912 5.07731722,5.90909091 4.99997515,5.90909091 C4.92263308,5.90909091 4.84529101,5.88299162 4.76794894,5.80452817 L0.103068913,1.07203803 C0.0257268423,0.993575003 0,0.91511198 0,0.836648958 C0,0.758185935 0.0257264281,0.679722912 0.103068913,0.60125989 L0.592670066,0.104562735 C0.670012136,0.0260997126 0.747354207,3.58577551e-14 0.824696277,3.58577551e-14 C0.902038348,3.58577551e-14 0.979380418,0.0260992924 1.05672249,0.104562735 L5,4.10499187 L8.94327751,0.104562735 C9.02061958,0.0260997126 9.09796165,3.58577551e-14 9.17530372,3.58577551e-14 C9.25264579,3.58577551e-14 9.32998786,0.0260992924 9.40732993,0.104562735 L9.89693109,0.60125989 C9.94838477,0.679722912 10,0.758185935 10,0.836648958 L10,0.836648958 Z" id="Path"></path></g></g></g></svg>