<svg width="56" height="56" viewBox="0 0 56 56" fill="none" xmlns="http://www.w3.org/2000/svg">
<path d="M21.7778 39.1284L39.1284 28L21.7778 16.8716V39.1284ZM28.0101 56C24.1383 56 20.4981 55.2653 17.0893 53.7958C13.6811 52.3263 10.7162 50.3321 8.19467 47.8131C5.67311 45.2941 3.67707 42.3319 2.20656 38.9262C0.735518 35.5211 0 31.8824 0 28.0101C0 24.1383 0.73474 20.4981 2.20422 17.0893C3.6737 13.6811 5.66793 10.7162 8.18689 8.19467C10.7059 5.67311 13.6681 3.67707 17.0738 2.20656C20.4789 0.735518 24.1176 0 27.9899 0C31.8617 0 35.5019 0.734743 38.9107 2.20422C42.3189 3.67371 45.2838 5.66793 47.8053 8.18689C50.3269 10.7059 52.3229 13.6681 53.7934 17.0738C55.2645 20.4789 56 24.1176 56 27.9899C56 31.8617 55.2653 35.5019 53.7958 38.9107C52.3263 42.3189 50.3321 45.2838 47.8131 47.8053C45.2941 50.3269 42.3319 52.3229 38.9262 53.7934C35.5211 55.2645 31.8824 56 28.0101 56ZM28 52.8889C34.9482 52.8889 40.8333 50.4778 45.6556 45.6556C50.4778 40.8333 52.8889 34.9482 52.8889 28C52.8889 21.0519 50.4778 15.1667 45.6556 10.3444C40.8333 5.52222 34.9482 3.11111 28 3.11111C21.0519 3.11111 15.1667 5.52222 10.3444 10.3444C5.52222 15.1667 3.11111 21.0519 3.11111 28C3.11111 34.9482 5.52222 40.8333 10.3444 45.6556C15.1667 50.4778 21.0519 52.8889 28 52.8889Z" fill="white"/>
</svg>
