<svg width="18" height="19" viewBox="0 0 18 19" fill="none" xmlns="http://www.w3.org/2000/svg">
<path d="M14.8283 5.6154L13.9617 3.67307L12.0167 2.8077L13.9617 1.9423L14.8283 0L15.6949 1.9423L17.6399 2.8077L15.6949 3.67307L14.8283 5.6154ZM14.8283 18.8461L13.9617 16.9039L12.0167 16.0385L13.9617 15.1731L14.8283 13.2308L15.6949 15.1731L17.6399 16.0385L15.6949 16.9039L14.8283 18.8461ZM5.58468 15L3.8515 11.1538L0 9.42307L3.8515 7.6923L5.58468 3.84612L7.31786 7.6923L11.1694 9.42307L7.31786 11.1538L5.58468 15ZM5.58468 12.5731L6.58607 10.4231L8.73906 9.42307L6.58607 8.42307L5.58468 6.27307L4.58329 8.42307L2.4303 9.42307L4.58329 10.4231L5.58468 12.5731Z" fill="black"/>
</svg>
