<svg width="18" height="18" viewBox="0 0 18 18" fill="none" xmlns="http://www.w3.org/2000/svg"><path d="M16.4844 17.154L10.2229 10.8925C9.72287 11.3182 9.14787 11.6477 8.49787 11.881C7.84787 12.1144 7.1947 12.231 6.53837 12.231C4.9367 12.231 3.58112 11.6766 2.47162 10.5678C1.36228 9.45895 0.807617 8.1042 0.807617 6.50353C0.807617 4.9027 1.36203 3.54678 2.47087 2.43578C3.5797 1.32495 4.93445 0.769531 6.53512 0.769531C8.13595 0.769531 9.49187 1.3242 10.6029 2.43353C11.7137 3.54303 12.2691 4.89861 12.2691 6.50028C12.2691 7.19511 12.146 7.86753 11.8999 8.51753C11.6537 9.16753 11.3306 9.72328 10.9306 10.1848L17.1921 16.4465L16.4844 17.154ZM6.53837 11.231C7.8652 11.231 8.98537 10.7743 9.89887 9.86078C10.8124 8.94745 11.2691 7.82728 11.2691 6.50028C11.2691 5.17328 10.8124 4.05311 9.89887 3.13978C8.98537 2.22628 7.8652 1.76953 6.53837 1.76953C5.21137 1.76953 4.0912 2.22628 3.17787 3.13978C2.26437 4.05311 1.80762 5.17328 1.80762 6.50028C1.80762 7.82728 2.26437 8.94745 3.17787 9.86078C4.0912 10.7743 5.21137 11.231 6.53837 11.231Z" fill="black"/></svg>