<svg width="18" height="18" viewBox="0 0 18 18" fill="none" xmlns="http://www.w3.org/2000/svg">
<path d="M9.028 14.2308C9.249 14.2308 9.4355 14.1544 9.5875 14.0017C9.7395 13.8491 9.8155 13.6623 9.8155 13.4413C9.8155 13.2201 9.73917 13.0336 9.5865 12.8818C9.43383 12.7298 9.24692 12.6538 9.02575 12.6538C8.80475 12.6538 8.61825 12.7301 8.46625 12.8828C8.31442 13.0354 8.2385 13.2223 8.2385 13.4435C8.2385 13.6645 8.31483 13.851 8.4675 14.003C8.62017 14.1548 8.807 14.2308 9.028 14.2308ZM8.5115 10.9192H9.477C9.50267 10.4846 9.58433 10.1313 9.722 9.8595C9.85983 9.58783 10.1435 9.24108 10.573 8.81925C11.0192 8.37308 11.3513 7.97342 11.5693 7.62025C11.7873 7.26708 11.8962 6.85825 11.8962 6.39375C11.8962 5.60558 11.6193 4.9775 11.0655 4.5095C10.5117 4.04167 9.8565 3.80775 9.1 3.80775C8.38083 3.80775 7.77025 4.00325 7.26825 4.39425C6.76642 4.78525 6.39883 5.23458 6.1655 5.74225L7.0845 6.123C7.24483 5.759 7.474 5.43725 7.772 5.15775C8.07017 4.87825 8.5 4.7385 9.0615 4.7385C9.71017 4.7385 10.1839 4.91633 10.4827 5.272C10.7814 5.62783 10.9307 6.01925 10.9307 6.44625C10.9307 6.79242 10.8372 7.10167 10.65 7.374C10.4628 7.6465 10.2193 7.92058 9.91925 8.19625C9.33975 8.73075 8.96025 9.18392 8.78075 9.55575C8.60125 9.92758 8.5115 10.3821 8.5115 10.9192ZM9.00325 18C7.75875 18 6.58867 17.7638 5.493 17.2915C4.3975 16.8192 3.4445 16.1782 2.634 15.3685C1.8235 14.5588 1.18192 13.6067 0.70925 12.512C0.236417 11.4175 0 10.2479 0 9.00325C0 7.75875 0.236167 6.58867 0.7085 5.493C1.18083 4.3975 1.82183 3.4445 2.6315 2.634C3.44117 1.8235 4.39333 1.18192 5.488 0.70925C6.5825 0.236417 7.75208 0 8.99675 0C10.2413 0 11.4113 0.236167 12.507 0.708501C13.6025 1.18083 14.5555 1.82183 15.366 2.6315C16.1765 3.44117 16.8181 4.39333 17.2908 5.488C17.7636 6.5825 18 7.75208 18 8.99675C18 10.2413 17.7638 11.4113 17.2915 12.507C16.8192 13.6025 16.1782 14.5555 15.3685 15.366C14.5588 16.1765 13.6067 16.8181 12.512 17.2908C11.4175 17.7636 10.2479 18 9.00325 18ZM9 17C11.2333 17 13.125 16.225 14.675 14.675C16.225 13.125 17 11.2333 17 9C17 6.76667 16.225 4.875 14.675 3.325C13.125 1.775 11.2333 1 9 1C6.76667 1 4.875 1.775 3.325 3.325C1.775 4.875 1 6.76667 1 9C1 11.2333 1.775 13.125 3.325 14.675C4.875 16.225 6.76667 17 9 17Z" fill="black"/>
</svg>
