<?xml version="1.0" encoding="UTF-8"?>
<svg width="14px" height="58px" viewBox="0 0 14 58" version="1.1" xmlns="http://www.w3.org/2000/svg" xmlns:xlink="http://www.w3.org/1999/xlink">
    <title>Birthday Icon</title>
    <defs>
        <polygon id="path-1" points="0 0 14 0 14 58 0 58"></polygon>
    </defs>
    <g id="Hi-Fi" stroke="none" stroke-width="1" fill="none" fill-rule="evenodd">
        <g id="Me&amp;Medik8-Guest-Landing-Page---Desktop" transform="translate(-365.000000, -3513.000000)">
            <g id="Ways-To-Earn-Points" transform="translate(0.000000, 2929.000000)">
                <g id="Grid" transform="translate(240.287458, 247.437578)">
                    <g id="Birthday" transform="translate(0.000000, 293.000000)">
                        <g id="Birthday-Icon" transform="translate(124.712542, 43.562422)">
                            <mask id="mask-2" fill="white">
                                <use xlink:href="#path-1"></use>
                            </mask>
                            <g id="Clip-2"></g>
                            <path d="M12.4892193,19.2755815 L12.4892193,27.222865 L2.40463007,17.5074405 C2.80854752,17.1959962 3.31303988,17.0020903 3.86916788,17.0020903 L10.1302928,17.0020903 C11.4310257,17.0026098 12.4890845,18.0224015 12.4890845,19.2754516 L12.4892193,19.2755815 Z M3.86916788,56.5449916 C2.56843504,56.5449916 1.50983697,55.5252 1.50983697,54.2721499 L1.50983697,46.0838152 L11.7318067,55.9310646 C11.3104976,56.3090057 10.7501902,56.5449916 10.1302928,56.5449916 L3.86916788,56.5449916 Z M12.4896238,29.2808908 L12.4896238,34.0685346 L12.4892193,34.0685346 L12.4896238,29.2808908 Z M1.50983697,23.4912484 L1.50983697,19.2758413 L1.50983697,23.4912484 Z M1.50983697,35.3783408 L1.50983697,28.6460536 L12.4896238,39.2233397 L12.4896238,45.955627 L1.50983697,35.3783408 Z M12.4892193,36.9788111 L1.50983697,26.4015249 L1.50983697,18.9110177 L12.4896238,29.4883038 L12.4896238,40.9134249 L12.4892193,36.9788111 Z M1.50983697,44.0269584 L1.50983697,37.6252073 L12.4896238,48.2024934 L12.4896238,54.2718901 C12.4896238,54.3754018 12.4722321,54.4733288 12.4580761,54.573204 L1.50983697,44.0269584 Z M3.06443381,8.30048312 C3.06443381,6.85157895 5.28624943,3.80649047 6.99952813,1.83106628 C8.71321129,3.80506183 10.9346225,6.8496308 10.9346225,8.30048312 C10.9346225,10.1421343 9.56432306,11.6772766 7.75478366,12.0176834 L7.75478366,9.36131579 C7.75478366,8.95895785 7.41665784,8.63374666 6.99952813,8.63374666 C6.58307252,8.63374666 6.24440742,8.95895785 6.24440742,9.36131579 L6.24440742,12.0176834 C4.43486802,11.6772766 3.06456863,10.1421343 3.06456863,8.30048312 L3.06443381,8.30048312 Z M3.86916788,15.5487704 C1.73579346,15.5487704 0,17.2209325 0,19.276101 L0,54.2726694 C0,56.3278378 1.73579346,58 3.86916788,58 L10.1302928,58 C12.2636673,58 13.9994607,56.3278378 13.9994607,54.2726694 L14,19.276101 C14,17.2209325 12.2642065,15.5487704 10.1308321,15.5487704 L7.7557274,15.5487704 L7.7557274,13.4890562 C10.4010092,13.1334539 12.4459424,10.9447722 12.4459424,8.300613 C12.4459424,5.60723055 8.06540643,0.775428677 7.56563273,0.233583197 C7.27860328,-0.0778610655 6.72301455,-0.0778610655 6.43598509,0.233583197 C5.9362114,0.775428677 1.55567539,5.60775005 1.55567539,8.300613 C1.55567539,10.9452917 3.60006934,13.1334539 6.24589043,13.4890562 L6.24589043,15.5487704 L3.86916788,15.5487704 Z" id="Fill-1" fill="#161616" mask="url(#mask-2)"></path>
                        </g>
                    </g>
                </g>
            </g>
        </g>
    </g>
</svg>