<?xml version="1.0" encoding="UTF-8"?>
<svg width="59px" height="59px" viewBox="0 0 59 59" version="1.1" xmlns="http://www.w3.org/2000/svg" xmlns:xlink="http://www.w3.org/1999/xlink">
    <title>Account Icon</title>
    <g id="Hi-Fi" stroke="none" stroke-width="1" fill="none" fill-rule="evenodd">
        <g id="Me&amp;Medik8-Guest-Landing-Page---Desktop" transform="translate(-629.000000, -3225.000000)" stroke="#161616" stroke-width="1.5">
            <g id="Ways-To-Earn-Points" transform="translate(0.000000, 2929.000000)">
                <g id="Grid" transform="translate(240.287458, 247.437578)">
                    <g id="Account" transform="translate(287.000000, 0.000000)">
                        <g id="Account-Icon" transform="translate(103.000000, 50.000000)">
                            <path d="M37,23.5 C37,28.7467143 32.7467143,33 27.5,33 C22.2532857,33 18,28.7467143 18,23.5 C18,18.2532857 22.2532857,14 27.5,14 C32.7467143,14 37,18.2532857 37,23.5 Z" id="Stroke-3"></path>
                            <path d="M9,48 C9,48 9.61940207,40.1834314 20.7597781,37.1554885 C20.7597781,37.1554885 27.6355841,44.0139724 36.2366774,37.003597 C36.2366774,37.003597 42.8328221,36.4934574 48,47.6235968" id="Stroke-5"></path>
                            <path d="M56,28 C56,43.4640255 43.4640255,56 28,56 C12.5359745,56 0,43.4640255 0,28 C0,12.5359745 12.5359745,0 28,0 C43.4640255,0 56,12.5359745 56,28 Z" id="Stroke-7"></path>
                        </g>
                    </g>
                </g>
            </g>
        </g>
    </g>
</svg>