<?xml version="1.0" encoding="UTF-8"?>
<svg width="42px" height="75px" viewBox="0 0 42 75" version="1.1" xmlns="http://www.w3.org/2000/svg" xmlns:xlink="http://www.w3.org/1999/xlink">
    <title>Purchase Icon</title>
    <g id="Hi-Fi" stroke="none" stroke-width="1" fill="none" fill-rule="evenodd">
        <g id="Me&amp;Medik8-Guest-Landing-Page---Desktop" transform="translate(-350.000000, -3223.000000)" stroke-width="1.2">
            <g id="Ways-To-Earn-Points" transform="translate(0.000000, 2929.000000)">
                <g id="Grid" transform="translate(240.287458, 247.437578)">
                    <g id="Purchase-Icon" transform="translate(111.000000, 48.000000)">
                        <path d="M6,63.015208 C8.45046336,64.425208 16.3106654,64.185208 18,63.015208" id="Path" stroke="#221F1F" stroke-linecap="round" stroke-linejoin="round"></path>
                        <g id="Group" transform="translate(7.000000, 64.000000)" stroke="#221F1F" stroke-linecap="round" stroke-linejoin="round">
                            <path d="M0.687021517,0 C0.889328515,1.59809789 1.49624951,6.1479766 0.889328515,6.56160193" id="Path"></path>
                            <path d="M0.889328515,6.56160193 C0.355973701,7.313648 0.760587698,7.76487564 3.13309704,7.46405721" id="Path"></path>
                            <path d="M8.19077201,0.0188011517 C8.19077201,2.12453014 7.97007346,4.5122764 7.97007346,4.5122764" id="Path"></path>
                            <path d="M7.97007346,4.5122764 C7.97007346,5.45233398 5.61595566,6.82481806 3.13309704,7.46405721" id="Path"></path>
                        </g>
                        <g id="Group" stroke="#2D2A26">
                            <path d="M5.35840462,53.3452761 L5.72636374,70.7278525 C5.72636374,70.7278525 5.68956783,71.2721921 6.31509832,71.4354939 C6.94062882,71.5987958 8.76202644,72.1068461 11.4849239,71.9798335 C14.2078214,71.8528209 14.1710254,72.0161228 16.3787801,71.5443618 C16.3787801,71.5443618 17.4090657,71.3084814 17.4826575,70.5282613 C17.5562493,69.7480413 17.7586268,53.3271315 17.7586268,53.3271315 C15.182913,54.1436408 7.25339407,54.1436408 5.37680258,53.3271315 L5.35840462,53.3452761 Z" id="Path"></path>
                            <path d="M17.7402289,53.3452761 C17.7402289,53.3452761 19.0280858,53.0549617 19.1752694,51.6759682 C19.3224531,50.2969746 20.61031,22.9529845 20.7574936,20.8844942 C20.9046773,18.8160039 21.9901566,5.58855274 22.9100544,2.97572289 C22.9100544,2.97572289 23.112432,0.471760945 22.9100544,0.145157214 C22.9100544,0.145157214 1.29245639,0.326603731 0.0597933563,0 C0.0597933563,0 -0.179380069,2.0684903 0.298966781,3.13902475 C0.298966781,3.13902475 2.00997667,7.89292351 3.04026219,34.3115365 L4.05214976,51.8755594 C4.05214976,51.8755594 4.23612932,52.8190812 5.32160871,53.3452761" id="Path"></path>
                        </g>
                        <g id="Group" transform="translate(27.000000, 31.000000)" stroke="#2D2A26">
                            <path d="M0.0245807959,38.7774204 C0.0245807959,38.7774204 -0.0336747123,40.0970855 1.36445748,40.530948 C2.56840465,40.9105777 6.91814927,41.3625178 11.3261494,40.530948 C11.3261494,40.530948 13.0932331,40.1874735 12.9961406,38.7412652 C12.8990481,37.295057 12.8602111,23.3210694 12.8602111,23.3210694 C12.8602111,23.3210694 13.0155591,21.4048434 11.8310305,20.7178945 C10.6465018,20.0309455 10.9766163,18.6389701 10.9766163,18.6389701 L10.9766163,17.9881763 C10.9766163,17.9881763 11.5203344,17.8074003 11.5203344,17.6085467 C11.5203344,17.409693 11.2873124,16.8673649 11.1125459,16.7046665 C11.1125459,16.7046665 10.8212683,16.7046665 11.6756824,16.4696576 C11.6756824,16.4696576 12.0640525,16.5238905 11.9863785,15.7646311 C11.9087045,15.0053718 11.9863785,10.3775052 11.9863785,10.3775052 C11.9863785,10.3775052 11.9863785,9.96172037 11.2678939,9.81709954 C10.5494093,9.67247871 10.1416207,9.6363235 10.1416207,9.6363235 L9.2677881,8.47935687 L9.05418457,2.09796282 C9.05418457,2.09796282 8.5493035,0.0551936132 6.18024616,0.000960802501 C3.81118883,-0.0532720082 3.26747075,2.20642844 3.26747075,2.20642844 L3.26747075,8.56974489 C3.26747075,8.56974489 2.60724166,9.67247871 2.60724166,9.67247871 C2.60724166,9.67247871 0.859576413,9.70863392 0.723646894,10.2871172 L0.859576413,16.361192 C0.859576413,16.361192 0.859576413,16.45158 1.73340904,16.6504337 C1.73340904,16.6504337 1.18969096,17.4820034 1.34503898,17.7531675 L1.86933856,17.9700987 L1.90817556,19.054755 C1.90817556,19.054755 1.90817556,20.0309455 1.32562048,20.4105752 C0.743065397,20.7902049 -0.0725117177,21.4409986 0.00516229319,22.56181 C0.0828363041,23.6826215 0.00516229319,38.7593428 0.00516229319,38.7593428 L0.0245807959,38.7774204 Z" id="Path"></path>
                            <path d="M0.7624839,10.3051948 C4.39374391,10.9559886 8.08325943,10.8836781 11.850449,10.0882636" id="Path"></path>
                            <path d="M2.64607866,9.6544011 C5.09281001,9.99787557 7.57837836,9.99787557 10.1222022,9.6363235" id="Path"></path>
                            <path d="M1.77224604,16.6504337 C5.38408755,17.3012274 8.06384093,17.3012274 11.850449,16.4877353" id="Path"></path>
                        </g>
                    </g>
                </g>
            </g>
        </g>
    </g>
</svg>