<?xml version="1.0" encoding="UTF-8"?>
<svg width="55px" height="38px" viewBox="0 0 55 38" version="1.1" xmlns="http://www.w3.org/2000/svg" xmlns:xlink="http://www.w3.org/1999/xlink">
    <title>Newsletter Icon</title>
    <defs>
        <polygon id="path-1" points="0 0 54 0 54 37 0 37"></polygon>
    </defs>
    <g id="Hi-Fi" stroke="none" stroke-width="1" fill="none" fill-rule="evenodd">
        <g id="Me&amp;Medik8-Guest-Landing-Page---Desktop" transform="translate(-916.000000, -3529.000000)">
            <g id="Ways-To-Earn-Points" transform="translate(0.000000, 2929.000000)">
                <g id="Grid" transform="translate(240.287458, 247.437578)">
                    <g id="Newsletter" transform="translate(572.000000, 293.000000)">
                        <g id="Newsletter-Icon" transform="translate(104.000000, 60.000000)">
                            <mask id="mask-2" fill="white">
                                <use xlink:href="#path-1"></use>
                            </mask>
                            <g id="Clip-2"></g>
                            <path d="M52.681012,34.423362 L35.4872508,16.5992262 L52.6798362,1.7784161 L52.681012,34.423362 Z M1.59477493,35.7209795 L1.93048953,35.3769643 L19.4664328,17.4033574 L19.5652069,17.4812214 L26.5782908,23.5285429 L26.5778204,23.5285429 C26.8268724,23.7439435 27.1989218,23.7439435 27.4473859,23.5285429 L34.4999794,17.4485463 L51.8183843,35.3711708 L52.134344,35.69572 L1.59477493,35.7209795 Z M1.31820725,34.072974 L1.31820725,1.74666798 L1.49600076,1.90239598 L1.66050679,2.04491491 L18.4391814,16.5146418 L1.35712898,34.034042 L1.31820725,34.072974 Z M51.2250337,1.3052069 L26.9994921,22.1790161 L2.79981983,1.3052069 L51.2250337,1.3052069 Z M53.9975306,0.519962358 C53.965429,0.387755773 53.8942881,0.268294783 53.7931622,0.175947151 C53.6691065,0.0645969949 53.5065995,0.00434508934 53.3389186,0.00712594652 L0.659360001,0.00712594652 C0.605151794,-0.00237531551 0.549062175,-0.00237531551 0.494853969,0.00712594652 C0.196297274,0.0831360428 -0.00901189845,0.352415713 0.00030455871,0.65622436 L0.00030455871,36.3438915 C-0.00901189845,36.6475843 0.196297274,36.916864 0.494853969,36.9928741 C0.549062175,37.0023753 0.605151794,37.0023753 0.659360001,36.9928741 L53.3389186,36.9928741 C53.5134196,36.9928741 53.6811005,36.9245113 53.8046858,36.8028488 C53.9282711,36.6810704 53.9975306,36.5158412 53.9975306,36.3438915 L53.9975306,0.65622436 C54.0008231,0.613236943 54.0008231,0.569786049 53.9975306,0.526335156 L53.9975306,0.519962358 Z" id="Fill-1" fill="#161616" mask="url(#mask-2)"></path>
                        </g>
                    </g>
                </g>
            </g>
        </g>
    </g>
</svg>