<?xml version="1.0" encoding="UTF-8"?>
<svg width="56px" height="56px" viewBox="0 0 56 56" version="1.1" xmlns="http://www.w3.org/2000/svg" xmlns:xlink="http://www.w3.org/1999/xlink">
    <title>Review Icon</title>
    <defs>
        <polygon id="path-1" points="0 0 55 0 55 55 0 55"></polygon>
    </defs>
    <g id="Hi-Fi" stroke="none" stroke-width="1" fill="none" fill-rule="evenodd">
        <g id="Me&amp;Medik8-Guest-Landing-Page---Desktop" transform="translate(-1202.000000, -3237.000000)">
            <g id="Ways-To-Earn-Points" transform="translate(0.000000, 2929.000000)">
                <g id="Grid" transform="translate(240.287458, 247.437578)">
                    <g id="Review" transform="translate(858.000000, 0.000000)">
                        <g id="Review-Icon" transform="translate(104.000000, 61.000000)">
                            <g id="Group-3">
                                <mask id="mask-2" fill="white">
                                    <use xlink:href="#path-1"></use>
                                </mask>
                                <g id="Clip-2"></g>
                                <path d="M6.64047795,38.3350821 L1.93255095,53.0627742 L16.5610093,48.2312514 L52.8652489,12.0249288 C53.2655583,11.6257428 53.4853694,11.0941251 53.4853694,10.5293745 C53.4853694,9.96502193 53.2655583,9.4329067 52.8652489,9.03382027 L45.9439456,2.13194338 C45.5436361,1.73275745 45.0104223,1.51356338 44.4441819,1.51356338 C43.8782409,1.51356338 43.3446279,1.73275745 42.9444182,2.13194338 L6.64047795,38.3350821 Z M0.757065873,55 C0.562598474,55 0.367731964,54.9245805 0.223452919,54.7808059 C0.0216019455,54.579422 -0.0505375769,54.2848085 0.0359699831,54.0151689 L5.25206654,37.698494 C5.28798663,37.5833748 5.35304191,37.4792004 5.43954947,37.3929356 L41.8744983,1.06025055 C42.5593747,0.377395866 43.4752374,0 44.4449801,0 C45.4147229,0 46.3302862,0.377395866 47.015462,1.06025055 L53.9367652,7.96212745 C54.6216417,8.64508163 55,9.55837366 55,10.5253946 C55,11.4924155 54.6215419,12.4054091 53.9367652,13.0886618 L17.5018164,49.4243318 C17.4188011,49.5071141 17.3179255,49.5716883 17.2063736,49.6078061 L0.998428949,54.9639817 C0.919304964,54.9888562 0.836289636,55 0.756866316,55 L0.757065873,55 Z" id="Fill-1" fill="#161616" mask="url(#mask-2)"></path>
                            </g>
                            <path d="M48.2114054,19 C48.0092455,19 47.8103011,18.9250172 47.6566845,18.7678956 L36.2303471,7.34313067 C35.9232176,7.03604344 35.9232176,6.53729894 36.2303471,6.23031542 C36.5374766,5.92322819 37.0362898,5.92322819 37.3433155,6.23031542 L48.7696529,17.6550803 C49.0767824,17.9621676 49.0767824,18.4608083 48.7696529,18.7678956 C48.61614,18.9213873 48.4139801,19 48.2114054,19 Z" id="Fill-4" fill="#161616"></path>
                            <path d="M17.2145171,49.9994813 C17.0123572,49.9994813 16.8134128,49.9244776 16.6597962,49.767312 L5.23034712,38.3435058 C4.92321763,38.0363328 4.92321763,37.537449 5.23034712,37.2303797 C5.53747661,36.9232068 6.03628976,36.9232068 6.34331553,37.2303797 L17.7696529,48.6583356 C18.0767824,48.9655086 18.0767824,49.4642886 17.7696529,49.7714616 C17.61614,49.9249963 17.4139801,50 17.2150357,50 L17.2145171,49.9994813 Z" id="Fill-6" fill="#161616"></path>
                            <path d="M11.7564589,44 C11.5616661,44 11.3699715,43.9242456 11.2219529,43.7763347 C10.9260157,43.4804129 10.9260157,42.9998024 11.2219529,42.7039806 L42.7056369,11.2219413 C43.0015741,10.9260196 43.4822098,10.9260196 43.7780471,11.2219413 C44.0739843,11.5178631 44.0739843,11.9983737 43.7780471,12.2942955 L12.2943631,43.7763347 C12.1425466,43.9238459 11.9512518,44 11.7564589,44 Z" id="Fill-8" fill="#161616"></path>
                        </g>
                    </g>
                </g>
            </g>
        </g>
    </g>
</svg>