<?xml version="1.0" encoding="UTF-8"?>
<svg width="48px" height="48px" viewBox="0 0 48 48" version="1.1" xmlns="http://www.w3.org/2000/svg" xmlns:xlink="http://www.w3.org/1999/xlink">
    <title>Instagram Icon</title>
    <g id="Hi-Fi" stroke="none" stroke-width="1" fill="none" fill-rule="evenodd">
        <g id="Me&amp;Medik8-Guest-Landing-Page---Desktop" transform="translate(-1206.000000, -3524.000000)" fill="#161616" fill-rule="nonzero">
            <g id="Ways-To-Earn-Points" transform="translate(0.000000, 2929.000000)">
                <g id="Grid" transform="translate(240.287458, 247.437578)">
                    <g id="Insta" transform="translate(858.000000, 293.000000)">
                        <g id="Instagram-Icon" transform="translate(108.000000, 55.000000)">
                            <path d="M23.5,12.7291667 C17.551433,12.7291667 12.7291667,17.551433 12.7291667,23.5 C12.7291667,29.448567 17.551433,34.2708333 23.5,34.2708333 C29.448567,34.2708333 34.2708333,29.448567 34.2708333,23.5 C34.2641179,17.5542169 29.4457831,12.7358821 23.5,12.7291667 Z M23.5,32.3125 C18.6329906,32.3125 14.6875,28.3670094 14.6875,23.5 C14.6875,18.6329906 18.6329906,14.6875 23.5,14.6875 C28.3670094,14.6875 32.3125,18.6329906 32.3125,23.5 C32.3070216,28.3647383 28.3647383,32.3070216 23.5,32.3125 Z M34.2708333,0 L12.7291667,0 C5.70234149,0.00795920566 0.00795920566,5.70234149 0,12.7291667 L0,34.2708333 C0.00795920566,41.2976585 5.70234149,46.9920408 12.7291667,47 L34.2708333,47 C41.2976585,46.9920408 46.9920408,41.2976585 47,34.2708333 L47,12.7291667 C46.9920408,5.70234149 41.2976585,0.00795920566 34.2708333,0 L34.2708333,0 Z M45.0416667,34.2708333 C45.0349512,40.2166165 40.2166165,45.0349512 34.2708333,45.0416667 L12.7291667,45.0416667 C6.78338353,45.0349512 1.96504879,40.2166165 1.95833333,34.2708333 L1.95833333,12.7291667 C1.96504879,6.78338353 6.78338353,1.96504879 12.7291667,1.95833333 L34.2708333,1.95833333 C40.2166165,1.96504879 45.0349512,6.78338353 45.0416667,12.7291667 L45.0416667,34.2708333 Z M38.1875,10.7708333 C38.1875,11.852391 37.3107243,12.7291667 36.2291667,12.7291667 C35.147609,12.7291667 34.2708333,11.852391 34.2708333,10.7708333 C34.2708333,9.6892757 35.147609,8.8125 36.2291667,8.8125 C37.3102115,8.81373702 38.186263,9.6897885 38.1875,10.7708333 L38.1875,10.7708333 Z" id="Shape"></path>
                        </g>
                    </g>
                </g>
            </g>
        </g>
    </g>
</svg>