<?xml version="1.0" encoding="UTF-8"?>
<svg width="353px" height="353px" viewBox="0 0 353 353" version="1.1" xmlns="http://www.w3.org/2000/svg" xmlns:xlink="http://www.w3.org/1999/xlink">

    <g id="Page-1" stroke="none" stroke-width="1" fill="none" fill-rule="evenodd">
        <g id="20240202---PDP-Phase-2---Enhanced-Video-Play-Button---Desktop" transform="translate(-204, -257)" fill="#FFFFFF">
            <g id="noun-play-button-2188050" transform="translate(204, 257)">
                <path d="M264.289479,172.05933 L135.469251,88.0015891 C133.6015,86.7822078 131.198187,86.6680225 129.216225,87.7040546 C127.234263,88.7400866 126,90.7564523 126,92.9534469 L126,261.048526 C126,263.24552 127.234263,265.261818 129.216225,266.297918 C131.198187,267.331298 133.6015,267.217113 135.469251,266.000384 L264.289479,181.963045 C265.983233,180.857917 267,179.000962 267,177.011256 C267,175.021481 265.983233,173.164594 264.289479,172.059466 L264.289479,172.05933 Z M138.211439,249.914752 L138.211439,104.119457 L249.959107,177.003503 L138.211439,249.914752 Z" id="Shape" fill-rule="nonzero"></path>
                <path d="M176.5,0 C129.690461,0 84.7965123,18.5952749 51.6945025,51.6945025 C18.5952749,84.7965123 0,129.688374 0,176.5 C0,223.311626 18.5952749,268.203488 51.6945025,301.305498 C84.7965123,334.404725 129.688374,353 176.5,353 C223.311626,353 268.203488,334.404725 301.305498,301.305498 C334.404725,268.203488 353,223.311626 353,176.5 C352.945659,129.707155 334.333777,84.845202 301.245679,51.7571034 C268.15758,18.6690049 223.293541,0.0570364532 176.502782,0 L176.5,0 Z M176.5,340.827586 C132.918585,340.827586 91.1192118,323.51424 60.3056158,292.697862 C29.4885419,261.880788 12.1758916,220.080719 12.1758916,176.503478 C12.1758916,132.926236 29.4892374,91.1226897 60.3056158,60.3090936 C91.1226897,29.4920197 132.922759,12.1793695 176.5,12.1793695 C220.077241,12.1793695 261.880788,29.4927153 292.694384,60.3090936 C323.511458,91.1261675 340.824108,132.926236 340.824108,176.503478 C340.775202,220.071677 323.446075,261.835576 292.64013,292.649172 C261.831403,323.455117 220.064721,340.784461 176.494435,340.833151 L176.5,340.827586 Z" id="Shape" fill-rule="nonzero"></path>
                <path d="M197.352384,111.389435 L282.065729,249.477084 C282.354527,249.947842 282.20702,250.563585 281.736261,250.852384 C281.57892,250.948909 281.397933,251 281.213345,251 L111.786655,251 C111.234371,251 110.786655,250.552285 110.786655,250 C110.786655,249.815411 110.837747,249.634424 110.934271,249.477084 L195.647616,111.389435 C195.936415,110.918676 196.552158,110.771169 197.022916,111.059968 C197.157149,111.142316 197.270036,111.255202 197.352384,111.389435 Z" id="Triangle" transform="translate(196.5, 180.5) rotate(-270) translate(-196.5, -180.5)"></path>
            </g>
        </g>
    </g>
</svg>