<?xml version="1.0" encoding="UTF-8"?>
<svg width="43px" height="56px" viewBox="0 0 43 56" version="1.1" xmlns="http://www.w3.org/2000/svg" xmlns:xlink="http://www.w3.org/1999/xlink">
    <!-- Generator: Sketch 63.1 (92452) - https://sketch.com -->
    <title>Group</title>
    <desc>Created with Sketch.</desc>
    <g id="06-PDP" stroke="none" stroke-width="1" fill="none" fill-rule="evenodd">
        <g id="01-PDP---A" transform="translate(-531.000000, -3644.000000)" fill="#000000" fill-rule="nonzero">
            <g id="Group-63" transform="translate(0.000000, 3442.000000)">
                <g id="Group-62" transform="translate(530.000000, 202.000000)">
                    <g id="Group-50" transform="translate(1.000000, 0.000000)">
                        <g id="Group">
                            <path d="M32.4556522,4.93043478 L16.2034783,4.93043478 L18.5043478,28.0243478 L30.1669565,28.0243478 L32.4556522,4.93043478 Z M24.3234783,19.1252174 C21.5113043,19.1252174 19.2226087,16.8365217 19.2226087,14.0243478 C19.2226087,11.2121739 21.5113043,8.93565217 24.3234783,8.93565217 C27.1356522,8.93565217 29.4243478,11.2243478 29.4243478,14.0243478 C29.4243478,16.8365217 27.1356522,19.1252174 24.3234783,19.1252174 Z" id="Shape"></path>
                            <path d="M24.3234783,9.81217391 C21.9982609,9.81217391 20.0991304,11.6991304 20.0991304,14.0243478 C20.0991304,16.3495652 21.9982609,18.2486957 24.3234783,18.2486957 C26.6486957,18.2486957 28.5478261,16.3495652 28.5478261,14.0243478 C28.5478261,11.7113043 26.6608696,9.81217391 24.3234783,9.81217391 Z" id="Path"></path>
                            <path d="M29.2782609,33.3808696 C29.4486957,33.3808696 29.6069565,33.1373913 29.6313043,32.8330435 L30.0573913,28.9252174 L18.5773913,28.9252174 L19.0034783,32.8330435 C19.04,33.1373913 19.1982609,33.3808696 19.3565217,33.3808696 L21.0730435,33.3808696 L28,33.3808696 L29.2782609,33.3808696 Z" id="Path"></path>
                            <path d="M22.4365217,38.6521739 L26.6486957,38.6521739 C27.1356522,38.6521739 27.5617391,37.9826087 27.5617391,37.2034783 L27.5617391,34.2452174 L21.5234783,34.2452174 L21.5234783,37.2034783 C21.5234783,37.9704348 21.9495652,38.6521739 22.4365217,38.6521739 Z" id="Path"></path>
                            <path d="M16.1182609,4.05391304 L32.5408696,4.05391304 L32.7478261,1.94782609 C32.7965217,1.43652174 32.626087,0.937391304 32.2852174,0.56 C31.9808696,0.219130435 31.5791304,0.0243478261 31.1773913,0.0243478261 L31.0921739,0.0243478261 L31.0921739,2.50782609 C31.0921739,2.75130435 30.8973913,2.94608696 30.653913,2.94608696 C30.4104348,2.94608696 30.2156522,2.75130435 30.2156522,2.50782609 L30.2156522,0.0243478261 L28.56,0.0243478261 L28.56,2.50782609 C28.56,2.75130435 28.3652174,2.94608696 28.1217391,2.94608696 C27.8782609,2.94608696 27.6834783,2.75130435 27.6834783,2.50782609 L27.6834783,0.0243478261 L26.0278261,0.0243478261 L26.0278261,2.50782609 C26.0278261,2.75130435 25.8330435,2.94608696 25.5895652,2.94608696 C25.346087,2.94608696 25.1513043,2.75130435 25.1513043,2.50782609 L25.1513043,0.0243478261 L23.4956522,0.0243478261 L23.4956522,2.50782609 C23.4956522,2.75130435 23.3008696,2.94608696 23.0573913,2.94608696 C22.813913,2.94608696 22.6191304,2.75130435 22.6191304,2.50782609 L22.6191304,0.0243478261 L20.9634783,0.0243478261 L20.9634783,2.50782609 C20.9634783,2.75130435 20.7686957,2.94608696 20.5252174,2.94608696 C20.2817391,2.94608696 20.0869565,2.75130435 20.0869565,2.50782609 L20.0869565,0.0243478261 L18.4313043,0.0243478261 L18.4313043,2.50782609 C18.4313043,2.75130435 18.2365217,2.94608696 17.9930435,2.94608696 C17.7495652,2.94608696 17.5547826,2.75130435 17.5547826,2.50782609 L17.5547826,0.0243478261 L17.4695652,0.0243478261 C17.0678261,0.0243478261 16.666087,0.219130435 16.3617391,0.56 C16.0208696,0.937391304 15.8504348,1.44869565 15.8991304,1.94782609 L16.1182609,4.05391304 Z" id="Path"></path>
                            <path d="M20.853913,55.0991304 C24.3234783,54.9895652 26.4782609,54.186087 27.2452174,52.7130435 C28.5113043,50.3026087 26.04,46.2608696 24.1895652,43.4 C23.3495652,46.6991304 20.866087,47.2104348 18.6504348,47.6730435 C16.4713043,48.1234783 14.7547826,48.4765217 14.5356522,51.1791304 C14.4747826,51.8486957 14.7426087,52.5304348 15.3147826,53.1391304 C16.4591304,54.4052174 18.6017391,55.1721739 20.853913,55.0991304 Z" id="Path"></path>
                            <path d="M41.6469565,55.0991304 L0.474782609,55.0991304 C0.231304348,55.0991304 0.0365217391,55.293913 0.0365217391,55.5373913 C0.0365217391,55.7808696 0.231304348,55.9756522 0.474782609,55.9756522 L41.6591304,55.9756522 C41.9026087,55.9756522 42.0973913,55.7808696 42.0973913,55.5373913 C42.0852174,55.306087 41.8904348,55.0991304 41.6469565,55.0991304 Z" id="Path"></path>
                        </g>
                    </g>
                </g>
            </g>
        </g>
    </g>
</svg>