<svg width="14" height="18" viewBox="0 0 14 18" fill="none" xmlns="http://www.w3.org/2000/svg">
<path d="M0 18V4H3.5V3.5C3.5 2.52817 3.84042 1.70192 4.52125 1.02125C5.20192 0.340416 6.02817 0 7 0C7.97183 0 8.79808 0.340416 9.47875 1.02125C10.1596 1.70192 10.5 2.52817 10.5 3.5V4H14V18H0ZM1 17H13V5H10.5V8H9.5V5H4.5V8H3.5V5H1V17ZM4.5 4H9.5V3.5C9.5 2.79617 9.25933 2.2035 8.778 1.722C8.2965 1.24067 7.70383 1 7 1C6.29617 1 5.7035 1.24067 5.222 1.722C4.74067 2.2035 4.5 2.79617 4.5 3.5V4Z" fill="black"/>
</svg>
