<svg width="18" height="18" viewBox="0 0 18 18" fill="none" xmlns="http://www.w3.org/2000/svg">
<path d="M16.4855 17.1539L10.224 10.8924C9.72399 11.318 9.14899 11.6475 8.49899 11.8808C7.84899 12.1142 7.19578 12.2308 6.53937 12.2308C4.9377 12.2308 3.58216 11.6764 2.47274 10.5676C1.36331 9.4588 0.808594 8.10399 0.808594 6.50319C0.808594 4.90239 1.363 3.54654 2.47182 2.43564C3.58064 1.32474 4.93544 0.769287 6.53624 0.769287C8.13706 0.769287 9.49291 1.324 10.6038 2.43341C11.7147 3.54283 12.2701 4.89838 12.2701 6.50006C12.2701 7.19493 12.1471 7.86736 11.9009 8.51736C11.6548 9.16736 11.3317 9.72314 10.9317 10.1847L17.1932 16.4462L16.4855 17.1539ZM6.53937 11.2308C7.8663 11.2308 8.98649 10.7741 9.89994 9.86064C10.8134 8.94717 11.2701 7.82698 11.2701 6.50006C11.2701 5.17315 10.8134 4.05296 9.89994 3.13949C8.98649 2.22602 7.8663 1.76929 6.53937 1.76929C5.21245 1.76929 4.09226 2.22602 3.17879 3.13949C2.26534 4.05296 1.80862 5.17315 1.80862 6.50006C1.80862 7.82698 2.26534 8.94717 3.17879 9.86064C4.09226 10.7741 5.21245 11.2308 6.53937 11.2308ZM6.03937 8.88469V7.00006H4.15477V6.00006H6.03937V4.11544H7.03939V6.00006H8.92399V7.00006H7.03939V8.88469H6.03937Z" fill="black"/>
</svg>
